<svg width="25" height="25" viewBox="0 0 25 25" fill="none" xmlns="http://www.w3.org/2000/svg">
<path d="M12.7461 2.78711C7.22609 2.78711 2.74609 7.26711 2.74609 12.7871C2.74609 18.3071 7.22609 22.7871 12.7461 22.7871C18.2661 22.7871 22.7461 18.3071 22.7461 12.7871C22.7461 7.26711 18.2661 2.78711 12.7461 2.78711ZM17.3861 9.58711C17.2361 11.1671 16.5861 15.0071 16.2561 16.7771C16.1161 17.5271 15.8361 17.7771 15.5761 17.8071C14.9961 17.8571 14.5561 17.4271 13.9961 17.0571C13.1161 16.4771 12.6161 16.1171 11.7661 15.5571C10.7761 14.9071 11.4161 14.5471 11.9861 13.9671C12.1361 13.8171 14.6961 11.4871 14.7461 11.2771C14.753 11.2453 14.7521 11.2123 14.7434 11.1809C14.7347 11.1495 14.7184 11.1208 14.6961 11.0971C14.6361 11.0471 14.5561 11.0671 14.4861 11.0771C14.3961 11.0971 12.9961 12.0271 10.2661 13.8671C9.86609 14.1371 9.50609 14.2771 9.18609 14.2671C8.82609 14.2571 8.14609 14.0671 7.63609 13.8971C7.00609 13.6971 6.51609 13.5871 6.55609 13.2371C6.57609 13.0571 6.82609 12.8771 7.29609 12.6871C10.2161 11.4171 12.1561 10.5771 13.1261 10.1771C15.9061 9.01711 16.4761 8.81711 16.8561 8.81711C16.9361 8.81711 17.1261 8.83711 17.2461 8.93711C17.3461 9.01711 17.3761 9.12711 17.3861 9.20711C17.3761 9.26711 17.3961 9.44711 17.3861 9.58711Z" fill="white"/>
</svg>
