<svg width="25" height="25" viewBox="0 0 25 25" fill="none" xmlns="http://www.w3.org/2000/svg">
<path fill-rule="evenodd" clip-rule="evenodd" d="M17.4222 3.41515C14.276 2.71188 11.0134 2.71188 7.86722 3.41515L7.52822 3.49015C6.64324 3.68802 5.83043 4.12734 5.18009 4.75932C4.52975 5.3913 4.06734 6.1912 3.84422 7.07015C3.04672 10.2127 3.04672 13.5046 3.84422 16.6472C4.057 17.4854 4.48763 18.2525 5.09245 18.8707C5.69728 19.4889 6.4548 19.9361 7.28822 20.1672L7.75322 22.9432C7.76806 23.0313 7.80627 23.1139 7.86385 23.1822C7.92144 23.2506 7.9963 23.3023 8.08065 23.3319C8.16499 23.3615 8.25573 23.368 8.34342 23.3506C8.4311 23.3332 8.51253 23.2927 8.57922 23.2332L11.3102 20.7902C13.3603 20.9153 15.4178 20.7513 17.4222 20.3032L17.7622 20.2282C18.6472 20.0303 19.46 19.591 20.1104 18.959C20.7607 18.327 21.2231 17.5271 21.4462 16.6482C22.2436 13.5056 22.2436 10.2137 21.4462 7.07115C21.223 6.19207 20.7605 5.39209 20.1099 4.76009C19.4594 4.1281 18.6464 3.68885 17.7612 3.49115L17.4222 3.41515ZM8.71122 6.98915C8.52537 6.9621 8.33586 6.99951 8.17422 7.09515H8.16022C7.78522 7.31515 7.44722 7.59215 7.15922 7.91815C6.91922 8.19515 6.78922 8.47515 6.75522 8.74515C6.73522 8.90515 6.74922 9.06715 6.79622 9.22015L6.81422 9.23015C7.08422 10.0232 7.43622 10.7862 7.86622 11.5042C8.42067 12.5126 9.10298 13.4453 9.89622 14.2792L9.92022 14.3132L9.95822 14.3412L9.98122 14.3682L10.0092 14.3922C10.8459 15.1878 11.7808 15.8733 12.7912 16.4322C13.9462 17.0612 14.6472 17.3582 15.0682 17.4822V17.4882C15.1912 17.5262 15.3032 17.5432 15.4162 17.5432C15.7748 17.5167 16.1141 17.3709 16.3802 17.1292C16.7052 16.8412 16.9802 16.5022 17.1942 16.1252V16.1182C17.3952 15.7382 17.3272 15.3802 17.0372 15.1372C16.4547 14.6282 15.8248 14.1761 15.1562 13.7872C14.7082 13.5442 14.2532 13.6912 14.0692 13.9372L13.6762 14.4332C13.4742 14.6792 13.1082 14.6452 13.1082 14.6452L13.0982 14.6512C10.3672 13.9542 9.63822 11.1892 9.63822 11.1892C9.63822 11.1892 9.60422 10.8132 9.85722 10.6212L10.3492 10.2252C10.5852 10.0332 10.7492 9.57915 10.4962 9.13115C10.1098 8.46192 9.65866 7.83223 9.14922 7.25115C9.03811 7.1144 8.88229 7.02126 8.70922 6.98815L8.71122 6.98915ZM13.3252 5.78715C13.1926 5.78715 13.0654 5.83983 12.9717 5.9336C12.8779 6.02737 12.8252 6.15455 12.8252 6.28715C12.8252 6.41976 12.8779 6.54694 12.9717 6.64071C13.0654 6.73448 13.1926 6.78715 13.3252 6.78715C14.5902 6.78715 15.6402 7.20015 16.4712 7.99215C16.8982 8.42515 17.2312 8.93816 17.4492 9.50015C17.6682 10.0632 17.7682 10.6642 17.7422 11.2662C17.7395 11.3318 17.7497 11.3974 17.7722 11.4591C17.7948 11.5208 17.8293 11.5775 17.8738 11.6259C17.9636 11.7236 18.0886 11.7816 18.2212 11.7872C18.3538 11.7927 18.4832 11.7454 18.5809 11.6556C18.6786 11.5657 18.7367 11.4408 18.7422 11.3082C18.7732 10.5676 18.6503 9.82874 18.3812 9.13815C18.111 8.44429 17.7012 7.81327 17.1772 7.28415L17.1672 7.27415C16.1362 6.28915 14.8312 5.78715 13.3252 5.78715ZM13.2912 7.43115C13.1586 7.43115 13.0314 7.48383 12.9377 7.5776C12.8439 7.67137 12.7912 7.79855 12.7912 7.93115C12.7912 8.06376 12.8439 8.19094 12.9377 8.28471C13.0314 8.37848 13.1586 8.43115 13.2912 8.43115H13.3082C14.2202 8.49615 14.8842 8.80015 15.3492 9.29915C15.8262 9.81315 16.0732 10.4522 16.0542 11.2422C16.0512 11.3748 16.1009 11.5032 16.1925 11.5991C16.2841 11.695 16.4101 11.7506 16.5427 11.7537C16.6753 11.7567 16.8037 11.707 16.8996 11.6153C16.9956 11.5237 17.0512 11.3978 17.0542 11.2652C17.0782 10.2282 16.7442 9.33315 16.0822 8.61915V8.61715C15.4052 7.89115 14.4762 7.50715 13.3582 7.43215L13.3412 7.43015L13.2912 7.43115ZM13.2722 9.10615C13.2053 9.10025 13.1379 9.10789 13.074 9.12862C13.0101 9.14934 12.951 9.18273 12.9003 9.22679C12.8496 9.27085 12.8083 9.32468 12.7789 9.38505C12.7494 9.44543 12.7324 9.51112 12.729 9.5782C12.7255 9.64529 12.7355 9.71239 12.7585 9.7755C12.7815 9.8386 12.817 9.89643 12.8629 9.94552C12.9087 9.99461 12.964 10.034 13.0254 10.0612C13.0868 10.0885 13.1531 10.1031 13.2202 10.1042C13.6382 10.1262 13.9052 10.2522 14.0732 10.4212C14.2422 10.5912 14.3682 10.8642 14.3912 11.2912C14.3925 11.3583 14.4072 11.4244 14.4346 11.4857C14.4619 11.547 14.5013 11.6021 14.5505 11.6478C14.5996 11.6936 14.6574 11.7289 14.7205 11.7518C14.7836 11.7747 14.8506 11.7847 14.9177 11.7812C14.9847 11.7776 15.0503 11.7606 15.1106 11.7311C15.1709 11.7017 15.2246 11.6604 15.2686 11.6097C15.3126 11.559 15.346 11.5 15.3667 11.4362C15.3874 11.3724 15.3951 11.305 15.3892 11.2382C15.3572 10.6382 15.1692 10.1082 14.7842 9.71815C14.3972 9.32815 13.8702 9.13815 13.2722 9.10615Z" fill="white"/>
</svg>
