<svg width="21" height="21" viewBox="0 0 21 21" fill="none" xmlns="http://www.w3.org/2000/svg">
<path d="M10.7481 0.787109C16.2711 0.787109 20.7481 5.26411 20.7481 10.7871C20.7481 16.3101 16.2711 20.7871 10.7481 20.7871C8.98084 20.79 7.24472 20.3223 5.71806 19.4321L0.752061 20.7871L2.10406 15.8191C1.21315 14.292 0.745108 12.5551 0.748061 10.7871C0.748061 5.26411 5.22506 0.787109 10.7481 0.787109ZM7.34006 6.08711L7.14006 6.09511C7.01058 6.10299 6.88404 6.13701 6.76806 6.19511C6.65958 6.25654 6.56056 6.33333 6.47406 6.42311C6.35406 6.53611 6.28606 6.63411 6.21306 6.72911C5.84318 7.21001 5.64403 7.80042 5.64706 8.40711C5.64906 8.89711 5.77706 9.37411 5.97706 9.82011C6.38606 10.7221 7.05906 11.6771 7.94706 12.5621C8.16106 12.7751 8.37106 12.9891 8.59706 13.1881C9.70045 14.1596 11.0153 14.8601 12.4371 15.2341L13.0051 15.3211C13.1901 15.3311 13.3751 15.3171 13.5611 15.3081C13.8523 15.2931 14.1367 15.2142 14.3941 15.0771C14.525 15.0097 14.6528 14.9362 14.7771 14.8571C14.7771 14.8571 14.8201 14.8291 14.9021 14.7671C15.0371 14.6671 15.1201 14.5961 15.2321 14.4791C15.3151 14.3931 15.3871 14.2921 15.4421 14.1771C15.5201 14.0141 15.5981 13.7031 15.6301 13.4441C15.6541 13.2461 15.6471 13.1381 15.6441 13.0711C15.6401 12.9641 15.5511 12.8531 15.4541 12.8061L14.8721 12.5451C14.8721 12.5451 14.0021 12.1661 13.4701 11.9241C13.4144 11.8998 13.3547 11.8859 13.2941 11.8831C13.2256 11.8761 13.1565 11.8838 13.0913 11.9057C13.0261 11.9276 12.9664 11.9632 12.9161 12.0101C12.9111 12.0081 12.8441 12.0651 12.1211 12.9411C12.0796 12.9969 12.0224 13.039 11.9569 13.0622C11.8913 13.0853 11.8204 13.0884 11.7531 13.0711C11.6879 13.0536 11.6241 13.0316 11.5621 13.0051C11.4381 12.9531 11.3951 12.9331 11.3101 12.8971C10.7361 12.6467 10.2047 12.3083 9.73506 11.8941C9.60906 11.7841 9.49206 11.6641 9.37206 11.5481C8.97865 11.1713 8.63578 10.7451 8.35206 10.2801L8.29306 10.1851C8.25068 10.1213 8.21642 10.0524 8.19106 9.98011C8.15306 9.83311 8.25206 9.71511 8.25206 9.71511C8.25206 9.71511 8.49506 9.44911 8.60806 9.30511C8.71806 9.16511 8.81106 9.02911 8.87106 8.93211C8.98906 8.74211 9.02606 8.54711 8.96406 8.39611C8.68406 7.71211 8.39406 7.03111 8.09606 6.35511C8.03706 6.22111 7.86206 6.12511 7.70306 6.10611C7.64906 6.10011 7.59506 6.09411 7.54106 6.09011C7.40677 6.08344 7.2722 6.08477 7.13806 6.09411L7.34006 6.08711Z" fill="white"/>
</svg>
